Coordinates
version=1
nRows=14
nColumns=63
inDegrees=yes

Units are S.I. units (second, meters, Newtons, ...)
If the header above contains a line with 'inDegrees', this indicates whether rotational values are in degrees (yes) or radians (no).

endheader
time	pelvis_tilt	pelvis_list	pelvis_rotation	pelvis_tx	pelvis_ty	pelvis_tz	hip_flexion_r	hip_adduction_r	hip_rotation_r	knee_angle_r	knee_angle_r_beta	ankle_angle_r	subtalar_angle_r	mtp_angle_r	hip_flexion_l	hip_adduction_l	hip_rotation_l	knee_angle_l	knee_angle_l_beta	ankle_angle_l	subtalar_angle_l	mtp_angle_l	L5_S1_Flex_Ext	L5_S1_Lat_Bending	L5_S1_axial_rotation	L4_L5_Flex_Ext	L4_L5_Lat_Bending	L4_L5_axial_rotation	L3_L4_Flex_Ext	L3_L4_Lat_Bending	L3_L4_axial_rotation	L2_L3_Flex_Ext	L2_L3_Lat_Bending	L2_L3_axial_rotation	L1_L2_Flex_Ext	L1_L2_Lat_Bending	L1_L2_axial_rotation	L1_T12_Flex_Ext	L1_T12_Lat_Bending	L1_T12_axial_rotation	Abs_r3	Abs_r2	Abs_r1	Abs_t1	Abs_t2	neck_flexion	neck_bending	neck_rotation	arm_flex_r	arm_add_r	arm_rot_r	elbow_flex_r	pro_sup_r	wrist_flex_r	wrist_dev_r	arm_flex_l	arm_add_l	arm_rot_l	elbow_flex_l	pro_sup_l	wrist_flex_l	wrist_dev_l
0.000000	7.565125	-6.702549	91.338689	0.208090	0.982238	0.585427	2.152606	3.106497	2.092255	5.357144	0.093500	23.672668	7.411808	0.000000	3.115915	-3.667113	-7.570927	8.331664	0.145415	23.829812	5.175831	0.000000	-0.070278	0.517102	-1.490254	-0.130513	0.687746	-1.583395	-0.115459	1.257282	-1.583395	-0.080320	1.257282	-1.303972	-0.065260	1.054474	-1.210832	-0.040157	0.800991	-1.117691	-0.501987	5.849560	-8.288347	0.000000	0.000000	9.796749	5.110630	13.973039	21.946187	-11.366604	77.360623	49.671597	86.275930	10.842794	6.451537	4.174639	-9.775006	36.589562	52.733341	79.640207	14.754231	11.957338
0.022727	7.526882	-6.633750	92.039330	0.207736	0.982157	0.585114	1.939008	3.101981	1.823013	5.058349	0.088285	23.764637	6.852390	0.000000	3.445917	-3.585526	-6.400503	8.926514	0.155797	24.315867	4.245259	0.000000	-0.069326	0.505316	-1.605632	-0.128745	0.672070	-1.705984	-0.113895	1.228625	-1.705984	-0.079232	1.228625	-1.404928	-0.064376	1.030440	-1.304576	-0.039613	0.782734	-1.204224	-0.495187	5.716234	-8.930044	0.000000	0.000000	10.081986	5.586726	13.806645	21.626633	-11.352761	76.701608	49.777998	84.701839	10.401951	6.411743	4.291588	-9.917320	36.510829	52.939130	80.974703	15.763220	12.965639
0.045455	7.491254	-6.563114	92.561860	0.207543	0.982073	0.584722	1.737650	3.095564	1.597006	4.827831	0.084262	23.841995	6.456933	0.000000	3.665312	-3.512464	-5.402626	9.383997	0.163782	24.668341	3.391377	0.000000	-0.068531	0.494555	-1.694583	-0.127269	0.657758	-1.800494	-0.112590	1.202461	-1.800494	-0.078324	1.202461	-1.482760	-0.063638	1.008496	-1.376849	-0.039159	0.766065	-1.270937	-0.489510	5.594503	-9.424762	0.000000	0.000000	10.312887	5.947668	13.688344	21.416824	-11.336088	76.255078	49.874112	83.702578	9.989323	6.354283	4.345877	-10.019286	36.361468	53.130860	81.856079	16.608195	13.998173
0.068182	7.458795	-6.491586	92.924771	0.207492	0.981986	0.584267	1.549087	3.088043	1.409863	4.659205	0.081318	23.906884	6.209305	0.000000	3.786046	-3.448248	-4.565375	9.717313	0.169599	24.901500	2.613877	0.000000	-0.067891	0.484857	-1.759602	-0.126081	0.644860	-1.869577	-0.111538	1.178881	-1.869577	-0.077593	1.178881	-1.539651	-0.063044	0.988720	-1.429676	-0.038793	0.751043	-1.319701	-0.484940	5.484798	-9.786377	0.000000	0.000000	10.496769	6.203702	13.610590	21.300108	-11.318422	75.990061	49.963346	83.200751	9.606443	6.287690	4.346259	-10.086425	36.157966	53.308578	82.340072	17.295989	15.034105
0.090909	7.430058	-6.420110	93.146558	0.207563	0.981893	0.583763	1.373874	3.080212	1.257214	4.546086	0.079344	23.961442	6.093374	0.000000	3.820068	-3.393198	-3.876832	9.939664	0.173480	25.029608	1.912453	0.000000	-0.067404	0.476260	-1.803183	-0.125176	0.633426	-1.915882	-0.110738	1.157979	-1.915882	-0.077036	1.157979	-1.577785	-0.062592	0.971190	-1.465086	-0.038515	0.737727	-1.352387	-0.481461	5.387549	-10.028764	0.000000	0.000000	10.640946	6.365076	13.565842	21.259832	-11.301595	75.875588	50.049109	83.118961	9.254846	6.220494	4.301487	-10.124257	35.916807	53.472327	82.482417	17.833437	16.052600
0.113636	7.405597	-6.349631	93.245714	0.207737	0.981794	0.583226	1.212568	3.072867	1.134688	4.482088	0.078227	24.007811	6.093009	0.000000	3.779324	-3.347634	-3.325078	10.064251	0.175654	25.066930	1.286798	0.000000	-0.067068	0.468803	-1.827822	-0.124552	0.623507	-1.942061	-0.110186	1.139847	-1.942061	-0.076652	1.139847	-1.599344	-0.062279	0.955982	-1.485106	-0.038323	0.726175	-1.370867	-0.479059	5.303189	-10.165799	0.000000	0.000000	10.752735	6.442034	13.546554	21.279344	-11.287443	75.880687	50.134810	83.379813	8.936068	6.161225	4.220313	-10.138303	35.654479	53.622150	82.338852	18.227372	17.032823
0.136364	7.385966	-6.281092	93.240733	0.207993	0.981687	0.582671	1.065724	3.066804	1.037915	4.460828	0.077856	24.048130	6.192079	0.000000	3.675763	-3.311876	-2.898192	10.104275	0.176353	25.027730	0.736606	0.000000	-0.066880	0.462523	-1.836014	-0.124203	0.615155	-1.950765	-0.109877	1.124577	-1.950765	-0.076437	1.124577	-1.606512	-0.062105	0.943176	-1.491761	-0.038215	0.716447	-1.377010	-0.477718	5.232148	-10.211358	0.000000	0.000000	10.839452	6.444823	13.545185	21.341990	-11.277799	75.974387	50.223857	83.905911	8.651643	6.118417	4.111491	-10.134084	35.387465	53.758093	81.965110	18.484629	17.953941
0.159091	7.371720	-6.215438	93.150108	0.208313	0.981571	0.582113	0.933897	3.062818	0.962524	4.475919	0.078120	24.084540	6.374451	0.000000	3.521333	-3.286244	-2.584257	10.072937	0.175806	24.926274	0.261568	0.000000	-0.066839	0.457458	-1.830253	-0.124126	0.608419	-1.944644	-0.109809	1.112264	-1.944644	-0.076390	1.112264	-1.601471	-0.062067	0.932849	-1.487081	-0.038192	0.708603	-1.372690	-0.477423	5.174858	-10.179318	0.000000	0.000000	10.908413	6.383689	13.554189	21.431117	-11.274499	76.125718	50.319658	84.619859	8.403106	6.100599	3.983774	-10.117122	35.132253	53.880198	81.416930	18.612041	18.795118
0.181818	7.363411	-6.153614	92.992333	0.208676	0.981444	0.581567	0.817645	3.061705	0.904144	4.520978	0.078906	24.119181	6.623994	0.000000	3.327981	-3.271059	-2.371353	9.983438	0.174244	24.776826	-0.138621	0.000000	-0.066942	0.453647	-1.813034	-0.124317	0.603351	-1.926349	-0.109979	1.102998	-1.926349	-0.076508	1.102998	-1.586405	-0.062162	0.925078	-1.473090	-0.038251	0.702700	-1.359776	-0.478158	5.131749	-10.083553	0.000000	0.000000	10.966934	6.268878	13.566024	21.530072	-11.279377	76.303710	50.425621	85.444262	8.191991	6.116302	3.845914	-10.092936	34.905327	53.988511	80.750046	18.616441	19.535520
0.204545	7.361594	-6.096563	92.785902	0.209064	0.981306	0.581049	0.717522	3.064260	0.858406	4.589619	0.080104	24.154193	6.924577	0.000000	3.107655	-3.266641	-2.247560	9.848979	0.171897	24.593650	-0.464268	0.000000	-0.067187	0.451128	-1.786853	-0.124773	0.600001	-1.898531	-0.110381	1.096874	-1.898531	-0.076788	1.096874	-1.563496	-0.062390	0.919941	-1.451818	-0.038391	0.698798	-1.340140	-0.479908	5.103254	-9.937940	0.000000	0.000000	11.022332	6.110636	13.573146	21.622203	-11.294268	76.477390	50.545156	86.301722	8.019834	6.174058	3.706664	-10.067049	34.723172	54.083074	80.020196	18.504664	20.154313
0.227273	7.366823	-6.045230	92.549308	0.209457	0.981154	0.580572	0.634084	3.071280	0.820938	4.675456	0.081602	24.191717	7.260068	0.000000	2.872302	-3.273309	-2.200959	9.682762	0.168996	24.391012	-0.715680	0.000000	-0.067572	0.449939	-1.754204	-0.125488	0.598419	-1.863842	-0.111014	1.093982	-1.863842	-0.077228	1.093982	-1.534928	-0.062747	0.917516	-1.425291	-0.038611	0.696956	-1.315653	-0.482659	5.089803	-9.756355	0.000000	0.000000	11.081922	5.919210	13.568012	21.690857	-11.321005	76.615789	50.681670	87.114845	7.888170	6.282398	3.574777	-10.044980	34.602275	54.163933	79.283114	18.283544	20.630661
0.250000	7.386274	-5.991955	92.363045	0.209785	0.980971	0.580155	0.552103	3.090585	0.730887	4.777287	0.083379	24.221122	7.606612	0.000000	2.645800	-3.303683	-2.262681	9.538214	0.166473	24.184463	-0.850404	0.000000	-0.067929	0.450681	-1.726729	-0.126151	0.599406	-1.834649	-0.111601	1.095787	-1.834649	-0.077636	1.095787	-1.510888	-0.063079	0.919030	-1.402967	-0.038815	0.698105	-1.295047	-0.485211	5.098198	-9.603548	0.000000	0.000000	11.151073	5.747063	13.519403	21.669264	-11.307930	76.576924	50.759785	87.709166	7.889667	6.649265	3.489293	-9.988130	34.541909	54.161447	78.892375	18.018033	20.997407
0.272727	7.415875	-5.951288	92.156178	0.210124	0.980773	0.579822	0.499770	3.119813	0.694794	4.870107	0.084999	24.290599	7.943174	0.000000	2.429477	-3.352913	-2.390657	9.378073	0.163678	24.032970	-0.848648	0.000000	-0.068369	0.453284	-1.691651	-0.126968	0.602868	-1.797379	-0.112324	1.102114	-1.797379	-0.078139	1.102114	-1.480195	-0.063488	0.924337	-1.374467	-0.039066	0.702137	-1.268738	-0.488353	5.127638	-9.408457	0.000000	0.000000	11.286687	5.552978	13.432453	21.554311	-11.321077	76.358647	50.874440	87.842033	7.947257	7.170892	3.418930	-9.931555	34.564118	54.122719	78.636391	17.655179	21.167040
0.295455	7.456678	-5.926230	91.996338	0.210388	0.980578	0.579604	0.473329	3.159609	0.665534	4.941420	0.086244	24.363352	8.216520	0.000000	2.258190	-3.418128	-2.547685	9.242090	0.161305	23.932262	-0.736043	0.000000	-0.068667	0.457646	-1.658360	-0.127521	0.608670	-1.762008	-0.112813	1.112721	-1.762008	-0.078479	1.112721	-1.451065	-0.063764	0.933232	-1.347418	-0.039236	0.708894	-1.243770	-0.490481	5.176987	-9.223303	0.000000	0.000000	11.473863	5.355094	13.290510	21.315764	-11.354135	75.941743	50.983516	87.526933	7.973088	7.656954	3.432289	-9.905751	34.855746	54.001524	78.453834	17.053255	20.939944
